<svg width="100%" viewBox="0 0 680 520" role="img" xmlns="http://www.w3.org/2000/svg">
<title>Logo Quiéndamas</title>
<desc>Megáfono con cara y patas, colores rosa, lila y verde lima</desc>

<style>
  .txt-marca { font-family: 'Segoe UI', sans-serif; font-weight: 700; font-size: 42px; fill: #E04891; letter-spacing: 2px; }
  .txt-sub { font-family: 'Segoe UI', sans-serif; font-weight: 400; font-size: 18px; fill: #888; letter-spacing: 4px; }
</style>

<ellipse cx="310" cy="400" rx="130" ry="18" fill="#E04891" opacity="0.12"/>
<path d="M140,180 L430,100 L430,310 L140,250 Z" fill="#E04891"/>
<path d="M140,180 L60,145 L60,280 L140,250 Z" fill="#c0357a"/>
<ellipse cx="60" cy="212" rx="22" ry="68" fill="#9a2860"/>
<path d="M430,100 L560,50 L560,360 L430,310 Z" fill="#D1E389"/>
<ellipse cx="560" cy="205" rx="32" ry="155" fill="#B9DE51"/>
<circle cx="255" cy="185" r="18" fill="white"/>
<circle cx="340" cy="172" r="18" fill="white"/>
<circle cx="260" cy="188" r="9" fill="#333"/>
<circle cx="345" cy="175" r="9" fill="#333"/>
<circle cx="264" cy="183" r="3" fill="white"/>
<circle cx="349" cy="170" r="3" fill="white"/>
<path d="M240,168 Q255,158 270,166" fill="none" stroke="#333" stroke-width="4" stroke-linecap="round"/>
<path d="M325,155 Q340,145 355,154" fill="none" stroke="#333" stroke-width="4" stroke-linecap="round"/>
<path d="M255,220 Q297,250 340,218" fill="none" stroke="#333" stroke-width="5" stroke-linecap="round"/>
<ellipse cx="235" cy="218" rx="18" ry="10" fill="#F5E1E2" opacity="0.9"/>
<ellipse cx="362" cy="206" rx="18" ry="10" fill="#F5E1E2" opacity="0.9"/>
<path d="M250,102 Q270,68 330,95" fill="none" stroke="#E1B7ED" stroke-width="12" stroke-linecap="round"/>
<rect x="195" y="345" width="22" height="55" rx="11" fill="#E04891"/>
<ellipse cx="206" cy="402" rx="28" ry="12" fill="#c0357a"/>
<rect x="285" y="348" width="22" height="55" rx="11" fill="#E04891"/>
<ellipse cx="296" cy="405" rx="28" ry="12" fill="#c0357a"/>
<path d="M430,140 Q470,120 490,130" fill="none" stroke="#E04891" stroke-width="5" stroke-linecap="round" opacity="0.6"/>
<path d="M430,155 Q480,135 505,148" fill="none" stroke="#E04891" stroke-width="4" stroke-linecap="round" opacity="0.4"/>
<path d="M430,170 Q485,155 510,170" fill="none" stroke="#E04891" stroke-width="3" stroke-linecap="round" opacity="0.25"/>
<text x="340" y="458" text-anchor="middle" class="txt-marca">¿Quiéndamas?</text>
<text x="340" y="488" text-anchor="middle" class="txt-sub">SUBASTAS ONLINE</text>
</svg>
